<?xml version="1.0" encoding="utf-8"?>
<!-- Generator: Adobe Illustrator 19.0.0, SVG Export Plug-In . SVG Version: 6.00 Build 0)  -->
<svg version="1.1" id="layer" xmlns="http://www.w3.org/2000/svg" xmlns:xlink="http://www.w3.org/1999/xlink" x="0px" y="0px"
	 viewBox="-153 -46 652 652" style="enable-background:new -153 -46 652 652;" xml:space="preserve">
<style type="text/css">
	.st0{fill:#FFFFFF;}
	.st1{fill:#7F7F7F;}
</style>
<rect x="-132" y="163.8" width="600" height="221.5"/>
<path class="st0" d="M-98.4,229.2h-14l2.6-16.6H-60l-2.6,16.6h-14.1l-6.4,41.3h-21.7L-98.4,229.2z M-54.5,212.6h21.6l-3.2,20h12.5
	l3.2-20H1.1l-9.2,57.9h-21.5l3.3-21.3h-12.4l-3.3,21.3h-21.7L-54.5,212.6z M6.7,212.6h43.6l-2.6,16.5H25.9l-0.8,4.9h18.4l-2.3,14.7
	H22.8l-0.9,5.3h21.8l-2.6,16.5H-2.5L6.7,212.6z M210.3,276.5H254l-2.6,16.5h-21.8l-0.8,4.9h18.4l-2.3,14.7h-18.4l-0.9,5.3h21.8
	l-2.6,16.5h-43.6L210.3,276.5z M-94.5,292.9h-14l2.6-16.5h49.7l-2.6,16.5h-14.1l-6.4,41.3h-21.7L-94.5,292.9z M-50.4,276.5h24.5
	c16.1,0,23.1,7,23.1,17.3c0,9.3-4.8,15.3-11.8,17.7l9.3,22.9h-21.6l-7.2-18.3h-1.2l-2.9,18.2h-21.4L-50.4,276.5z M-29.8,302.4
	c3.6,0,6.1-1.5,6.1-5.6c0-2.8-1.7-4.4-5.2-4.4h-2.6l-1.5,9.9H-29.8z M5.9,276.5h21.8l-9.2,57.9H-3.3L5.9,276.5z M33.2,276.5h26.9
	c14.6,0,19.3,6.9,19.3,14.5c0,7.7-5.2,12.4-11.5,13.6c5.5,1.1,10,4.9,10,11.9c0,10.6-8.9,17.9-23.1,17.9H24L33.2,276.5z M51.3,320.4
	c3.6,0,6-2.2,6-5.3c0-2.9-1.7-4.3-5.3-4.3h-3.3l-1.5,9.6H51.3z M55,298.3c3.5,0,5.1-1.6,5.1-4.4c0-2.6-1.6-3.6-4.6-3.6h-3.6l-1.3,8
	H55z M82.4,308.3l5.1-31.9H109l-5.1,32.5c-1,6.1,0.2,9.6,5.5,9.6c5.5,0,6.3-3.3,7.2-8.8l5.2-33.4h21.7l-5.5,35
	c-2.6,17.1-11.9,24-28.9,24C90,335.5,79.4,326.4,82.4,308.3z M149,276.5h23.8l8.7,25.6l4-25.6h19.1l-9.2,57.9h-20.3l-11.5-30.3
	l-4.8,30.3h-19.2L149,276.5z"/>
<path class="st1" d="M271.3,212.6h43.6l-2.6,16.5h-21.8l-0.8,4.9h18.4l-2.3,14.7h-18.4l-0.9,5.3h21.8l-2.6,16.5h-43.6L271.3,212.6z
	 M55.9,212.6h23.2c15.5,0,23.2,7.1,23.3,17.3c0,14.5-9.2,23-25.4,23h-5.9l-2.7,17.5H46.8L55.9,212.6z M75.8,238.8
	c3.9,0,6.2-2.1,6.2-6.1c0-2.6-1.7-4.3-5.3-4.3h-2l-1.6,10.5h2.7V238.8z M111.2,212.6h21.6l-6.5,41.3h23.5l-7.9,16.6H102L111.2,212.6
	z M188.2,262.8h-16.4l-3.2,7.6h-20.5l26.9-57.9h27.8l8.6,57.9h-22.5L188.2,262.8z M177.7,248.4h9.2l-1.6-18.4L177.7,248.4z
	 M222.2,245.9l-13.3-33.3h22.4l4.8,15.4l9.6-15.4h21.5L243.9,247l-3.7,23.6h-21.7L222.2,245.9z M320.5,212.6h24.5
	c16.1,0,23.1,7,23.1,17.3c0,9.3-4.8,15.3-11.8,17.7l9.3,22.9h-21.5l-7.3-18.4h-1.2l-2.8,18.3h-21.5L320.5,212.6z M341.2,238.6
	c3.6,0,6.1-1.5,6.1-5.6c0-2.8-1.7-4.4-5.2-4.4h-2.6l-1.5,9.9H341.2z M367,251.8h20.2c0.1,2.7,1.4,4.9,6.1,4.9c3.2,0,4.6-1,4.6-3.1
	c0-1.6-1.7-2.5-6-3.3c-15.2-2.6-20.3-7.7-20.3-17.8c0-12,8.9-20.8,25.2-20.8c14.9,0,23.9,5.8,23.7,19.2h-19.6
	c-0.1-2.6-1.5-4.3-4.5-4.3c-2.5,0-3.9,0.9-3.9,2.7c0,1.7,1.6,2.6,6,3.3c13.3,2.2,20.7,6.8,20.7,17.5c0,12.8-8.8,21.3-26.1,21.5
	C376.5,271.7,366.8,265.1,367,251.8z M446.2,223c0-5.8-4.7-10.5-10.4-10.5c-5.6,0-10.5,4.1-10.5,10.4c0,3.9,3.3,9.7,10.5,9.7
	c0,1.2-1.2,2.8-5.2,3.4l0.1,1.3C439,237.4,446.2,230.6,446.2,223z"/>
</svg>
